<svg width="70" height="70" viewBox="0 0 70 70" fill="none" xmlns="http://www.w3.org/2000/svg">
<g id="edit / add_to_queue">
<path id="edit / add_to_queue_2" d="M46.6667 64.1667H11.6667C8.44502 64.1667 5.83334 61.555 5.83334 58.3333V23.3333H11.6667V58.3333H46.6667V64.1667ZM58.3333 52.5H23.3333C20.1117 52.5 17.5 49.8883 17.5 46.6667V11.6667C17.5 8.445 20.1117 5.83333 23.3333 5.83333H58.3333C61.555 5.83333 64.1667 8.445 64.1667 11.6667V46.6667C64.1667 49.8883 61.555 52.5 58.3333 52.5ZM23.3333 11.6667V46.6667H58.3333V11.6667H23.3333ZM43.75 40.8333H37.9167V32.0833H29.1667V26.25H37.9167V17.5H43.75V26.25H52.5V32.0833H43.75V40.8333Z" fill="#CCCCCC"/>
</g>
</svg>
