<svg width="30" height="30" viewBox="0 0 30 30" fill="none" xmlns="http://www.w3.org/2000/svg">
<g id="Star" opacity="0.5">
<path id="Vector" fill-rule="evenodd" clip-rule="evenodd" d="M13.5662 5.16401C14.11 3.9102 15.89 3.9102 16.4338 5.16401L18.9087 10.8718L25.1012 11.4618C26.4612 11.5906 27.0112 13.2832 25.9862 14.1882L21.3237 18.3059L22.6763 24.3774C22.9738 25.7125 21.5337 26.7576 20.3562 26.0625L15 22.9011L9.64375 26.0638C8.46625 26.7588 7.02625 25.7138 7.32375 24.3787L8.67625 18.3071L4.01375 14.1894C2.98875 13.2844 3.53875 11.5918 4.9 11.4631L11.0912 10.873L13.5662 5.16526V5.16401ZM15 8.1429L13.0912 12.5431L12.7987 13.2207L12.0637 13.2907L7.28875 13.7457L10.8837 16.9208L11.4375 17.4084L11.2775 18.1284L10.2337 22.8111L14.365 20.3723L15 19.9972L15.635 20.3723L19.7662 22.8099L18.7225 18.1284L18.5625 17.4084L19.1162 16.9208L22.7113 13.7457L17.9362 13.2907L17.2012 13.2207L16.9087 12.5431L15 8.1429Z" fill="#626262"/>
</g>
</svg>
